Coordinates
version=1
nRows=13
nColumns=40
inDegrees=yes

Units are S.I. units (second, meters, Newtons, ...)
Angles are in degrees.

endheader
time	pelvis_tilt	pelvis_list	pelvis_rotation	pelvis_tx	pelvis_ty	pelvis_tz	hip_flexion_r	hip_adduction_r	hip_rotation_r	knee_angle_r	knee_angle_r_beta	ankle_angle_r	subtalar_angle_r	mtp_angle_r	hip_flexion_l	hip_adduction_l	hip_rotation_l	knee_angle_l	knee_angle_l_beta	ankle_angle_l	subtalar_angle_l	mtp_angle_l	lumbar_extension	lumbar_bending	lumbar_rotation	arm_flex_r	arm_add_r	arm_rot_r	elbow_flex_r	pro_sup_r	wrist_flex_r	wrist_dev_r	arm_flex_l	arm_add_l	arm_rot_l	elbow_flex_l	pro_sup_l	wrist_flex_l	wrist_dev_l
      0.60666667	    -15.92056752	      3.60422524	      1.81131236	      1.64969072	      0.86583444	     -0.20345472	     48.08384958	     -7.46510883	      3.08335105	     67.51371600	     67.51371600	      7.95756065	      0.00000000	      0.00000000	     12.25531406	      6.25402872	     -9.12387093	     26.68479091	     26.68479091	     11.89569719	      0.00000000	      0.00000000	      3.20515477	     -0.18859543	    -17.13577227	    -34.31807762	    -25.89803874	      3.56592424	     81.69784186	     72.26945757	      0.00000000	      0.00000000	     -6.99469127	    -14.83632911	     10.24061442	    115.00907810	     71.69703743	      0.00000000	      0.00000000
      0.61333333	    -15.31819352	      0.54630382	      2.67899209	      1.66913323	      0.87242122	     -0.20335532	     46.61437157	     -5.63862690	     -0.43762529	     62.55918017	     62.55918017	      6.86819422	      0.00000000	      0.00000000	      9.32165130	      3.18444098	     -6.31569473	     23.91755582	     23.91755582	      6.81982441	      0.00000000	      0.00000000	      2.74815038	      3.62451199	    -19.71061020	    -35.30499182	    -26.41103650	      1.83659061	     84.03496543	     72.50718230	      0.00000000	      0.00000000	     -7.68830869	    -14.96333486	     10.48906582	    116.41322996	     71.61347665	      0.00000000	      0.00000000
      0.62000000	    -15.70460711	      0.52491995	      3.24973346	      1.68767822	      0.87660043	     -0.20214984	     46.86359057	     -5.79890573	     -0.68199267	     58.38401292	     58.38401292	      7.08044099	      0.00000000	      0.00000000	      8.29950949	      2.85601935	     -6.98665989	     23.26555749	     23.26555749	      6.06860984	      0.00000000	      0.00000000	      3.62040077	      3.64809955	    -21.39176356	    -36.25883130	    -26.62172698	      1.26995721	     84.66908578	     72.56184609	      0.00000000	      0.00000000	     -7.60708899	    -16.06522534	     10.51157331	    117.49776262	     71.64606440	      0.00000000	      0.00000000
      0.62666667	    -15.63498534	     -1.64174543	      3.67214198	      1.70710020	      0.88213751	     -0.20069784	     45.60473514	     -3.61562820	     -1.73813379	     52.26706972	     52.26706972	      5.58342344	      0.00000000	      0.00000000	      6.46679137	      0.33258993	     -6.02167061	     21.36263929	     21.36263929	      1.76079197	      0.00000000	      0.00000000	      3.80824173	      6.35506165	    -23.49908632	    -36.95923459	    -26.59090894	     -0.60592668	     86.50292564	     72.80778050	      0.00000000	      0.00000000	     -8.95276193	    -16.61853408	     10.89234506	    119.17007377	     71.73367214	      0.00000000	      0.00000000
      0.63333333	    -15.29504655	     -2.67354484	      4.37751229	      1.72655472	      0.88734523	     -0.20010499	     44.32306608	     -3.14622974	     -3.48367622	     46.80411141	     46.80411141	      4.35441770	      0.00000000	      0.00000000	      4.56976499	     -1.08886623	     -6.08117938	     19.95296132	     19.95296132	     -1.56654511	      0.00000000	      0.00000000	      3.87273575	      7.70654746	    -25.41474549	    -37.93242939	    -26.40837067	     -2.22326212	     87.85614344	     73.11565150	      0.00000000	      0.00000000	     -9.56250889	    -17.29642678	     10.71392550	    120.30387101	     71.83159569	      0.00000000	      0.00000000
      0.64000000	    -15.33723609	     -3.31259017	      4.97545598	      1.74588291	      0.89161235	     -0.19904182	     43.43749245	     -2.61258830	     -4.05990391	     41.40750097	     41.40750097	      3.70893323	      0.00000000	      0.00000000	      3.22444469	     -2.10381792	     -6.31880979	     18.81267509	     18.81267509	     -4.56758370	      0.00000000	      0.00000000	      4.35057183	      8.52829958	    -27.20438331	    -38.84206060	    -26.15744847	     -3.84480770	     89.13270966	     73.33059528	      0.00000000	      0.00000000	    -10.39007446	    -18.21569577	     10.81598087	    121.51995516	     71.92902938	      0.00000000	      0.00000000
      0.64666667	    -15.74404742	     -3.00542152	      5.59652093	      1.76495627	      0.89454253	     -0.19786543	     43.46269642	     -3.12430906	     -4.55666605	     37.46269994	     37.46269994	      3.95747189	      0.00000000	      0.00000000	      2.44128603	     -2.16643518	     -7.44982237	     18.17417075	     18.17417075	     -5.67174515	      0.00000000	      0.00000000	      5.33953013	      8.02760218	    -28.72703732	    -39.94460073	    -26.05341476	     -4.68444898	     89.89077145	     73.36800824	      0.00000000	      0.00000000	    -10.79669090	    -19.61833059	     10.60929157	    122.45285220	     71.98629570	      0.00000000	      0.00000000
      0.65333333	    -15.39412119	     -4.01045184	      6.09335179	      1.78477275	      0.89921485	     -0.19692723	     41.36418211	     -1.99384050	     -5.16264787	     30.67115810	     30.67115810	      2.09245530	      0.00000000	      0.00000000	      0.69911228	     -3.57918827	     -7.33213699	     16.73269535	     16.73269535	    -11.18660708	      0.00000000	      0.00000000	      5.27387803	      9.46132854	    -30.36130113	    -40.67825965	    -25.00481826	     -7.49168052	     91.74685833	     73.49375670	      0.00000000	      0.00000000	    -12.24561012	    -19.94625792	     10.67493239	    123.60320403	     72.13198904	      0.00000000	      0.00000000
      0.66000000	    -15.73089546	     -3.35952998	      6.53550737	      1.80456203	      0.90133485	     -0.19557759	     41.38898002	     -2.78138830	     -6.20273370	     27.52798890	     27.52798890	      2.38056665	      0.00000000	      0.00000000	     -0.16056556	     -3.21691246	     -8.65060911	     16.26136573	     16.26136573	    -12.18645454	      0.00000000	      0.00000000	      6.18099580	      8.52022747	    -31.50164467	    -41.98492742	    -24.90603691	     -8.26587367	     92.40437779	     73.57412356	      0.00000000	      0.00000000	    -13.04508951	    -21.25930611	     10.66951622	    124.32298108	     72.18013683	      0.00000000	      0.00000000
      0.66666667	    -16.04556738	     -2.88368177	      6.93320011	      1.82412642	      0.90386661	     -0.19409625	     40.66338275	     -3.12961396	     -6.39142654	     22.85806891	     22.85806891	      2.21893208	      0.00000000	      0.00000000	     -0.85639308	     -3.06889487	     -9.54144754	     15.84411929	     15.84411929	    -14.92689146	      0.00000000	      0.00000000	      6.83621431	      7.95622607	    -32.83748879	    -42.71205191	    -23.97788167	     -9.86087738	     94.01885091	     73.67834446	      0.00000000	      0.00000000	    -14.65856433	    -22.13043362	     11.15331683	    125.33504367	     72.26398188	      0.00000000	      0.00000000
      0.67333333	    -16.10873477	     -2.54076535	      6.99847617	      1.84338553	      0.90608614	     -0.19230757	     40.18112110	     -3.23965372	     -6.92257259	     19.60452962	     19.60452962	      1.68936607	      0.00000000	      0.00000000	     -1.73041680	     -3.00736417	    -10.19610078	     15.72047397	     15.72047397	    -17.10229396	      0.00000000	      0.00000000	      7.14856472	      7.60860722	    -33.60723227	    -43.57462056	    -23.37144802	    -11.43465215	     94.88516521	     73.73058605	      0.00000000	      0.00000000	    -15.65857061	    -22.93735243	     10.96126158	    125.95375216	     72.32298134	      0.00000000	      0.00000000
      0.68000000	    -15.54420010	     -2.75928558	      7.14745224	      1.86285122	      0.90890500	     -0.19049856	     38.23080509	     -2.51823870	     -6.15872730	     15.05055003	     15.05055003	     -1.00247060	      0.00000000	      0.00000000	     -3.08158117	     -3.71716991	    -10.91692074	     15.67663875	     15.67663875	    -20.80300562	      0.00000000	      0.00000000	      6.78069845	      7.99876422	    -33.94452852	    -44.26192335	    -21.21762243	    -14.65901993	     96.35020532	     73.94224628	      0.00000000	      0.00000000	    -16.39034543	    -23.05258068	     10.75444841	    126.49793269	     72.49755850	      0.00000000	      0.00000000
      0.68666667	    -15.58741652	     -2.23573567	      6.85207498	      1.88214582	      0.91014468	     -0.18788162	     38.20897401	     -2.63157957	     -6.84662806	     13.71381700	     13.71381700	     -0.94804784	      0.00000000	      0.00000000	     -3.76427027	     -3.39546465	    -11.50040699	     16.22312469	     16.22312469	    -21.11703951	      0.00000000	      0.00000000	      7.07050900	      7.28304229	    -33.99186868	    -44.88783889	    -20.70979402	    -15.26950778	     96.73637731	     73.97306772	      0.00000000	      0.00000000	    -17.41634140	    -23.72439057	     10.87944808	    126.54931066	     72.54398231	      0.00000000	      0.00000000
